<svg width="23" height="23" viewBox="0 0 23 23" fill="none" xmlns="http://www.w3.org/2000/svg">
<path d="M8.01222 0.756458C5.71416 1.55367 3.73232 3.06682 2.3578 5.07363C0.983271 7.08045 0.288515 9.47515 0.375575 11.906C0.462635 14.3369 1.32692 16.6757 2.84149 18.5791C4.35605 20.4824 6.44106 21.8499 8.79026 22.4807C10.6948 22.9721 12.6902 22.9937 14.605 22.5436C16.3395 22.1539 17.9432 21.3205 19.2589 20.125C20.6282 18.8426 21.6222 17.2113 22.1339 15.4064C22.69 13.4436 22.789 11.3795 22.4232 9.37247H11.7282V13.809H17.922C17.7982 14.5165 17.5329 15.1919 17.142 15.7946C16.7512 16.3972 16.2427 16.9149 15.6471 17.3165C14.8908 17.8168 14.0382 18.1534 13.1441 18.3047C12.2474 18.4715 11.3276 18.4715 10.4308 18.3047C9.52193 18.1168 8.66214 17.7417 7.9062 17.2033C6.69178 16.3436 5.77992 15.1223 5.30073 13.7137C4.81345 12.2787 4.81345 10.723 5.30073 9.28802C5.64183 8.28216 6.2057 7.36633 6.95026 6.60888C7.80233 5.72616 8.88106 5.09519 10.0681 4.78519C11.2552 4.47519 12.5047 4.49815 13.6796 4.85154C14.5973 5.13327 15.4366 5.62552 16.1305 6.28904C16.8289 5.59424 17.5261 4.89766 18.2221 4.19927C18.5814 3.82372 18.9732 3.46615 19.3271 3.08161C18.268 2.09599 17.0248 1.32904 15.6687 0.824739C13.1993 -0.0719195 10.4973 -0.0960164 8.01222 0.756458Z" fill="white"/>
<path d="M8.0123 0.756477C10.4971 -0.096577 13.1991 -0.0731145 15.6688 0.822961C17.0251 1.33069 18.2678 2.10133 19.3254 3.09062C18.9661 3.47515 18.5869 3.83452 18.2203 4.20827C17.5232 4.90426 16.8266 5.59786 16.1306 6.28905C15.4367 5.62554 14.5974 5.13329 13.6796 4.85155C12.5052 4.49693 11.2557 4.47264 10.0683 4.78137C8.88095 5.0901 7.80155 5.71992 6.94855 6.60171C6.20399 7.35916 5.64011 8.27499 5.29902 9.28085L1.5741 6.39687C2.90739 3.75288 5.21591 1.73043 8.0123 0.756477Z" fill="#E33629"/>
<path d="M0.585722 9.25388C0.785932 8.26164 1.11832 7.30073 1.574 6.39685L5.29893 9.28802C4.81164 10.723 4.81164 12.2787 5.29893 13.7137C4.05788 14.6721 2.81624 15.6352 1.574 16.6031C0.433259 14.3324 0.0853514 11.7453 0.585722 9.25388Z" fill="#F8BD00"/>
<path d="M11.7282 9.37073H22.4232C22.7891 11.3777 22.6901 13.4419 22.1339 15.4046C21.6222 17.2096 20.6283 18.8409 19.2589 20.1232C18.0568 19.1853 16.8493 18.2545 15.6472 17.3165C16.2432 16.9145 16.7519 16.3963 17.1428 15.793C17.5337 15.1897 17.7987 14.5136 17.922 13.8054H11.7282C11.7264 12.3284 11.7282 10.8496 11.7282 9.37073Z" fill="#587DBD"/>
<path d="M1.57227 16.6031C2.81451 15.6448 4.05615 14.6817 5.29719 13.7137C5.77733 15.1229 6.69049 16.3442 7.90625 17.2033C8.66455 17.7392 9.52619 18.1113 10.4362 18.2958C11.333 18.4625 12.2528 18.4625 13.1495 18.2958C14.0436 18.1444 14.8962 17.8078 15.6526 17.3075C16.8547 18.2455 18.0622 19.1762 19.2643 20.1142C17.9488 21.3104 16.3451 22.1445 14.6104 22.5346C12.6957 22.9847 10.7003 22.9632 8.7957 22.4717C7.28939 22.0695 5.88239 21.3605 4.66289 20.3891C3.37213 19.3644 2.31789 18.0729 1.57227 16.6031Z" fill="#319F43"/>
</svg>
