<svg width="25" height="25" viewBox="0 0 25 25" fill="none" xmlns="http://www.w3.org/2000/svg">
<path d="M4.25736 6.74689C4.69893 6.30531 5.22315 5.95503 5.80008 5.71605C6.37702 5.47707 6.99539 5.35406 7.61986 5.35406C8.24434 5.35406 8.8627 5.47707 9.43964 5.71605C10.0166 5.95503 10.5408 6.30531 10.9824 6.74689L12.5001 8.2646L14.0178 6.74689C14.9097 5.8551 16.1194 5.35416 17.3806 5.35425C18.6419 5.35435 19.8515 5.85549 20.7433 6.74741C21.6351 7.63934 22.136 8.849 22.1359 10.1103C22.1358 11.3716 21.6347 12.5811 20.7428 13.4729L19.2251 14.9896L19.2386 15.0031L12.5136 21.7292L12.5001 21.7156L12.4865 21.7292L5.76153 15.0031L5.77507 14.9896L4.25736 13.4729C3.81563 13.0314 3.46521 12.5071 3.22614 11.93C2.98707 11.353 2.86401 10.7345 2.86401 10.1099C2.86401 9.48531 2.98707 8.86683 3.22614 8.28979C3.46521 7.71276 3.81563 7.18848 4.25736 6.74689Z" stroke="white" stroke-width="1.5" stroke-linejoin="round"/>
</svg>
