<svg width="17" height="17" viewBox="0 0 17 17" fill="none" xmlns="http://www.w3.org/2000/svg">
<path d="M4.10474 5.30959C4.22466 4.22771 4.73937 3.22807 5.55034 2.50202C6.36132 1.77596 7.41158 1.37451 8.50008 1.37451C9.58858 1.37451 10.6388 1.77596 11.4498 2.50202C12.2608 3.22807 12.7755 4.22771 12.8954 5.30959L13.0949 7.1035L13.0997 7.14863C13.2019 8.03848 13.4917 8.89653 13.9499 9.66613L13.9737 9.70571L14.4305 10.4681C14.8461 11.16 15.0535 11.506 15.0084 11.7902C14.9786 11.9788 14.8816 12.1503 14.7352 12.2731C14.5144 12.4583 14.1106 12.4583 13.3039 12.4583H3.69624C2.88874 12.4583 2.48499 12.4583 2.26491 12.2739C2.11814 12.1511 2.02083 11.9792 1.99099 11.7902C1.94666 11.506 2.15408 11.16 2.56891 10.4681L3.02728 9.70492L3.05104 9.66534C3.5089 8.89591 3.79842 8.03814 3.90049 7.14863L3.90524 7.1035L4.10474 5.30959Z" stroke="black" stroke-width="2"/>
<path d="M5.3335 12.4583C5.3335 13.2982 5.66713 14.1036 6.26099 14.6975C6.85486 15.2914 7.66031 15.625 8.50016 15.625C9.34002 15.625 10.1455 15.2914 10.7393 14.6975C11.3332 14.1036 11.6668 13.2982 11.6668 12.4583" stroke="black" stroke-width="2" stroke-linecap="round"/>
</svg>
