<svg width="19" height="19" viewBox="0 0 19 19" fill="none" xmlns="http://www.w3.org/2000/svg">
<path d="M9.50002 13.4584C9.91995 13.4584 10.3227 13.2915 10.6196 12.9946C10.9165 12.6977 11.0834 12.2949 11.0834 11.875C11.0834 11.4551 10.9165 11.0524 10.6196 10.7554C10.3227 10.4585 9.91995 10.2917 9.50002 10.2917C9.08009 10.2917 8.67737 10.4585 8.38043 10.7554C8.0835 11.0524 7.91669 11.4551 7.91669 11.875C7.91669 12.2949 8.0835 12.6977 8.38043 12.9946C8.67737 13.2915 9.08009 13.4584 9.50002 13.4584ZM14.25 6.33335C14.6699 6.33335 15.0727 6.50017 15.3696 6.7971C15.6665 7.09403 15.8334 7.49676 15.8334 7.91669V15.8334C15.8334 16.2533 15.6665 16.656 15.3696 16.9529C15.0727 17.2499 14.6699 17.4167 14.25 17.4167H4.75002C4.33009 17.4167 3.92737 17.2499 3.63043 16.9529C3.3335 16.656 3.16669 16.2533 3.16669 15.8334V7.91669C3.16669 7.49676 3.3335 7.09403 3.63043 6.7971C3.92737 6.50017 4.33009 6.33335 4.75002 6.33335H5.54169V4.75002C5.54169 3.70021 5.95872 2.69339 6.70106 1.95106C7.44339 1.20872 8.45021 0.791687 9.50002 0.791687C10.0198 0.791687 10.5346 0.894072 11.0148 1.093C11.4951 1.29192 11.9314 1.58349 12.299 1.95106C12.6665 2.31862 12.9581 2.75498 13.157 3.23523C13.356 3.71548 13.4584 4.2302 13.4584 4.75002V6.33335H14.25ZM9.50002 2.37502C8.87013 2.37502 8.26604 2.62524 7.82064 3.07064C7.37524 3.51604 7.12502 4.12013 7.12502 4.75002V6.33335H11.875V4.75002C11.875 4.12013 11.6248 3.51604 11.1794 3.07064C10.734 2.62524 10.1299 2.37502 9.50002 2.37502Z" fill="#ADADAD"/>
</svg>
