<svg width="19" height="19" viewBox="0 0 19 19" fill="none" xmlns="http://www.w3.org/2000/svg">
<path d="M15.8333 3.16669H3.16665C2.29581 3.16669 1.59123 3.87919 1.59123 4.75002L1.58331 14.25C1.58331 15.1209 2.29581 15.8334 3.16665 15.8334H15.8333C16.7041 15.8334 17.4166 15.1209 17.4166 14.25V4.75002C17.4166 3.87919 16.7041 3.16669 15.8333 3.16669ZM15.5166 6.53127L9.91956 10.0304C9.66623 10.1888 9.33373 10.1888 9.0804 10.0304L3.48331 6.53127C3.40393 6.48671 3.33442 6.4265 3.27897 6.3543C3.22353 6.28209 3.18332 6.19939 3.16077 6.11119C3.13822 6.02299 3.13379 5.93114 3.14777 5.84118C3.16175 5.75122 3.19383 5.66504 3.24208 5.58784C3.29033 5.51064 3.35374 5.44404 3.42847 5.39206C3.50321 5.34008 3.58771 5.3038 3.67687 5.28542C3.76603 5.26705 3.858 5.26695 3.94719 5.28515C4.03639 5.30334 4.12097 5.33944 4.19581 5.39127L9.49998 8.70835L14.8041 5.39127C14.879 5.33944 14.9636 5.30334 15.0528 5.28515C15.142 5.26695 15.2339 5.26705 15.3231 5.28542C15.4122 5.3038 15.4968 5.34008 15.5715 5.39206C15.6462 5.44404 15.7096 5.51064 15.7579 5.58784C15.8061 5.66504 15.8382 5.75122 15.8522 5.84118C15.8662 5.93114 15.8617 6.02299 15.8392 6.11119C15.8166 6.19939 15.7764 6.28209 15.721 6.3543C15.6655 6.4265 15.596 6.48671 15.5166 6.53127Z" fill="#ADADAD"/>
</svg>
